<svg width="512" xmlns="http://www.w3.org/2000/svg" height="512" id="screenshot-a0bb4f3e-509d-802f-8007-9145d6f557f3" viewBox="0 0 512 512" xmlns:xlink="http://www.w3.org/1999/xlink" fill="none" version="1.1"><g id="shape-a0bb4f3e-509d-802f-8007-9145d6f557f3"><defs><clipPath id="frame-clip-a0bb4f3e-509d-802f-8007-9145d6f557f3-render-1" class="frame-clip frame-clip-def"><rect rx="0" ry="0" x="0" y="0" width="512" height="512" transform="matrix(1.000000, 0.000000, 0.000000, 1.000000, 0.000000, 0.000000)"/></clipPath></defs><g class="frame-container-wrapper"><g class="frame-container-blur"><g class="frame-container-shadows"><g clip-path="url(#frame-clip-a0bb4f3e-509d-802f-8007-9145d6f557f3-render-1)" fill="none"><g class="fills" id="fills-a0bb4f3e-509d-802f-8007-9145d6f557f3"><rect rx="0" ry="0" x="0" y="0" width="512" height="512" transform="matrix(1.000000, 0.000000, 0.000000, 1.000000, 0.000000, 0.000000)" class="frame-background"/></g><g class="frame-children"><g id="shape-a0bb4f3e-509d-802f-8007-9145f09009e8"><g class="fills" id="fills-a0bb4f3e-509d-802f-8007-9145f09009e8"><rect rx="0" ry="0" x="-2.2737367544323206e-13" y="137" transform="matrix(1.000000, 0.000000, 0.000000, 1.000000, 0.000000, 0.000000)" width="512.0000000000001" height="10" style="fill: rgb(255, 255, 255); fill-opacity: 1;"/></g></g><g id="shape-a0bb4f3e-509d-802f-8007-91460c00ff5e"><g class="fills" id="fills-a0bb4f3e-509d-802f-8007-91460c00ff5e"><rect rx="0" ry="0" x="-2.5444738026944833" y="237.8389738905189" transform="matrix(1.000000, 0.000000, 0.000000, 1.000000, 0.000000, 0.000000)" width="512.0000000000001" height="10" style="fill: rgb(255, 255, 255); fill-opacity: 1;"/></g></g><g id="shape-a0bb4f3e-509d-802f-8007-914615ed671c"><g class="fills" id="fills-a0bb4f3e-509d-802f-8007-914615ed671c"><rect rx="0" ry="0" x="0" y="339" transform="matrix(1.000000, 0.000000, 0.000000, 1.000000, 0.000000, 0.000000)" width="512.0000000000001" height="10" style="fill: rgb(255, 255, 255); fill-opacity: 1;"/></g></g><g id="shape-a0bb4f3e-509d-802f-8007-9145d6f557f5"><g class="fills" id="fills-a0bb4f3e-509d-802f-8007-9145d6f557f5"><path d="M245.683349609375,17.425537109375L230.5814208984375,129.525390625L208.822265625,291.041259765625C196.07080078125,283.520751953125,179.6942138671875,278.940673828125,161.324951171875,278.748779296875C115.6744384765625,278.2744140625,75.164306640625,304.740966796875,70.827880859375,337.80908203125C66.4862060546875,370.91259765625,99.962646484375,398.141845703125,145.5865478515625,398.61279296875C191.2294921875,399.0771484375,231.7379150390625,372.61962890625,236.0792236328125,339.515869140625L278.86865234375,21.89599609375L245.683349609375,17.425537109375L245.683349609375,17.425537109375L245.683349609375,17.425537109375" style="fill: rgb(255, 255, 255); fill-opacity: 1;"/></g></g><g id="shape-a0bb4f3e-509d-802f-8007-9145d6f557f6"><g class="fills" id="fills-a0bb4f3e-509d-802f-8007-9145d6f557f6"><path d="M354.951171875,95.173828125L346.2247314453125,158.734375C346.1375732421875,159.380859375,346.3067626953125,160.039306640625,346.7025146484375,160.560791015625L346.7039794921875,160.562744140625C347.1031494140625,161.08447265625,347.6927490234375,161.427001953125,348.34521484375,161.512451171875L359.127197265625,162.9462890625L350.8355712890625,223.353515625L333.3035888671875,236.64990234375C332.781982421875,237.045654296875,332.4415283203125,237.6337890625,332.3531494140625,238.278076171875L301.9990234375,459.350341796875C301.8843994140625,459.868408203125,301.7828369140625,460.38330078125,301.7027587890625,460.9296875C300.899658203125,466.788818359375,302.4229736328125,472.614990234375,306.0001220703125,477.329345703125C309.5775146484375,482.044189453125,314.7781982421875,485.079833984375,320.6370849609375,485.88427734375C332.7347412109375,487.537841796875,343.927001953125,479.0517578125,345.5992431640625,466.96923828125C345.603759765625,466.946533203125,345.605224609375,466.923583984375,345.609619140625,466.904296875L381.286865234375,205.593017578125C381.378662109375,204.92724609375,380.9564208984375,204.45458984375,380.5712890625,203.947265625C380.562255859375,203.935302734375,380.550048828125,203.919189453125,380.540771484375,203.906982421875C379.716064453125,202.81982421875,378.408203125,202.426025390625,377.3206787109375,203.251220703125C377.1837158203125,203.355224609375,377.180419921875,203.3798828125,377.0728759765625,203.505859375L371.367431640625,208.09814453125C371.316162109375,208.130859375,371.4244384765625,208.235595703125,371.3760986328125,208.2724609375L371.3197021484375,208.315185546875L390.5704345703125,67.2021484375C390.6639404296875,66.53466796875,390.4193115234375,65.806640625,390.0357666015625,65.30126953125C389.6982421875,64.8564453125,389.1844482421875,64.48828125,388.6015625,64.3564453125C388.1754150390625,64.254638671875,378.0631103515625,61.9892578125,368.782470703125,68.380859375C361.3541259765625,73.4970703125,356.6917724609375,82.5,354.951171875,95.173828125Z" style="fill: rgb(255, 255, 255); fill-opacity: 1;"/></g></g></g></g></g></g></g></g></svg>